<svg width="19" height="19" viewBox="0 0 19 19" fill="none" xmlns="http://www.w3.org/2000/svg">
<path fill-rule="evenodd" clip-rule="evenodd" d="M1.1875 9.5C1.1875 4.92812 4.92812 1.1875 9.5 1.1875C14.0719 1.1875 17.8125 4.92812 17.8125 9.5C17.8125 14.0719 14.0719 17.8125 9.5 17.8125C4.92812 17.8125 1.1875 14.0719 1.1875 9.5ZM16.625 9.5C16.625 5.58125 13.4187 2.375 9.5 2.375C5.58125 2.375 2.375 5.58125 2.375 9.5C2.375 13.4187 5.58125 16.625 9.5 16.625C13.4187 16.625 16.625 13.4187 16.625 9.5Z" fill="white"/>
<path d="M14.25 8.90625H10.0938V4.75H8.90625V8.90625H4.75V10.0938H8.90625V14.25H10.0938V10.0938H14.25V8.90625Z" fill="white"/>
</svg>
