<svg width="16" height="20" viewBox="0 0 16 20" fill="none" xmlns="http://www.w3.org/2000/svg">
<path fill-rule="evenodd" clip-rule="evenodd" d="M1 17L1.83296 15.3999H11.8356C13.2147 15.3979 14.3321 14.3246 14.3341 13C14.3324 11.6753 13.2147 10.6018 11.8356 10.5998H3.49857V9H11.8356C14.1354 9.00051 15.9994 10.791 16 12.9997C15.9994 15.2087 14.1354 16.9991 11.8356 17H1Z" fill="white"/>
<path fill-rule="evenodd" clip-rule="evenodd" d="M11.4283 18H0L1.28278 15.4816H11.4367C12.5435 15.475 13.437 14.5897 13.437 13.5001C13.437 12.4103 12.5435 11.525 11.4367 11.5184H2.75066V9H11.4289C13.9526 8.99912 15.9991 11.0132 16 13.4984C16.0008 15.9836 13.9555 17.9991 11.4318 18H11.4283ZM1.47569 17.0998H11.4283C13.4474 17.0998 15.0841 15.4882 15.0841 13.4998C15.0841 11.5118 13.4474 9.89991 11.4283 9.89991H3.66423V10.6185H11.4283C13.0448 10.6065 14.3651 11.8874 14.3767 13.4795C14.3884 15.0714 13.0867 16.3709 11.4701 16.3815H1.84461L1.47569 17.0998Z" fill="white"/>
<path fill-rule="evenodd" clip-rule="evenodd" d="M1 3L1.83975 4.60007H10.8016C12.192 4.6021 13.3185 5.67533 13.3206 7C13.3185 8.32467 12.192 9.39819 10.8016 9.40014H4.35862V11H10.8016C13.1202 10.9994 14.9995 9.20894 15 7.00029C14.9995 4.79128 13.1202 3.00051 10.8016 3H1Z" fill="white"/>
<path fill-rule="evenodd" clip-rule="evenodd" d="M10.405 11H3.60334V8.48158H10.405C11.5186 8.47499 12.4179 7.59001 12.4179 6.50015C12.4179 5.41028 11.5186 4.52523 10.405 4.51835H1.29105L0 2H10.3965C12.9366 1.99766 14.9977 4.01036 15 6.49553C15.0023 8.98078 12.945 10.9974 10.405 10.9997V11ZM4.5231 10.1001H10.405C12.4369 10.1001 14.0844 8.48846 14.0844 6.50015C14.0844 4.51205 12.4369 2.90021 10.405 2.90021H1.49365L1.86495 3.61844H10.405C12.0232 3.62986 13.3292 4.91657 13.3292 6.50015C13.3292 8.08343 12.0232 9.37036 10.405 9.38149H4.5231V10.1001Z" fill="white"/>
<path fill-rule="evenodd" clip-rule="evenodd" d="M3 18H5V3H3V18Z" fill="white"/>
<path fill-rule="evenodd" clip-rule="evenodd" d="M5.99965 18H3V2H6L5.99965 18ZM4.07145 17.0694H4.92785V2.93084H4.07215V17.0694H4.07145Z" fill="white"/>
<path fill-rule="evenodd" clip-rule="evenodd" d="M5 3H7V0H5V3Z" fill="white"/>
<path fill-rule="evenodd" clip-rule="evenodd" d="M5 4H7V0H5V4ZM5.43814 3.508H6.56985V0.483353H5.43814V3.508Z" fill="white"/>
<path fill-rule="evenodd" clip-rule="evenodd" d="M9 3H11V0H9V3Z" fill="white"/>
<path fill-rule="evenodd" clip-rule="evenodd" d="M9 4H11V0H9V4ZM9.43808 3.508H10.5696V0.483353H9.43808V3.508Z" fill="white"/>
<path fill-rule="evenodd" clip-rule="evenodd" d="M5 20H7V17H5V20Z" fill="white"/>
<path fill-rule="evenodd" clip-rule="evenodd" d="M5 20H7V16H5V20ZM5.43814 19.5167H6.56985V16.4924H5.43814V19.5167Z" fill="white"/>
<path fill-rule="evenodd" clip-rule="evenodd" d="M9 20H11V17H9V20Z" fill="white"/>
<path fill-rule="evenodd" clip-rule="evenodd" d="M9 20H11V16H9V20ZM9.43808 19.5167H10.5696V16.4924H9.43808V19.5167Z" fill="white"/>
</svg>
