<svg width="24" height="24" viewBox="0 0 24 24" fill="none" xmlns="http://www.w3.org/2000/svg">
<g opacity="0.183524">
<path fill-rule="evenodd" clip-rule="evenodd" d="M12.4575 1.65752C12.1849 1.44212 11.8001 1.44212 11.5275 1.65752L0.75 10.065L1.68 11.25L3 10.215V19.5C3 20.3284 3.67157 21 4.5 21H19.5C20.3284 21 21 20.3284 21 19.5V10.2225L22.32 11.25L23.25 10.0725L12.4575 1.65752ZM13.5 13.5V19.5H10.5V13.5H13.5ZM15 13.5V19.5H19.5V9.05252L12 3.20252L4.5 9.04502V19.5H9V13.5C9 12.6716 9.67157 12 10.5 12H13.5C14.3284 12 15 12.6716 15 13.5Z" fill="white"/>
</g>
</svg>
