<svg width="19" height="19" viewBox="0 0 19 19" fill="none" xmlns="http://www.w3.org/2000/svg">
<path fill-rule="evenodd" clip-rule="evenodd" d="M3.23595 2.44034L16.2985 8.97159C16.4967 9.07318 16.6215 9.27722 16.6215 9.50002C16.6215 9.72283 16.4967 9.92687 16.2985 10.0285L3.23595 16.5597C3.15323 16.6021 3.06171 16.6245 2.96876 16.625C2.78048 16.6315 2.60029 16.5483 2.48317 16.4007C2.36605 16.2532 2.32592 16.0588 2.37501 15.8769L4.15626 9.50002L2.39876 3.10534C2.34614 2.88628 2.42203 2.6563 2.5947 2.51159C2.77577 2.36364 3.02682 2.33575 3.23595 2.44034ZM5.20126 10.0938L3.88908 14.9091L14.7013 9.50002L3.88908 4.09096L5.20126 8.90627H10.6875V10.0938H5.20126Z" fill="white"/>
</svg>
