<svg width="40" height="13" viewBox="0 0 40 13" fill="none" xmlns="http://www.w3.org/2000/svg">
<mask id="mask0_0_196" style="mask-type:alpha" maskUnits="userSpaceOnUse" x="0" y="0" width="40" height="13">
<path fill-rule="evenodd" clip-rule="evenodd" d="M0 0H40V13H0V0Z" fill="white"/>
</mask>
<g mask="url(#mask0_0_196)">
<path fill-rule="evenodd" clip-rule="evenodd" d="M17.3404 12.7834H14.0764L16.1163 0.224452H19.3806L17.3404 12.7834ZM11.3307 0.224452L8.21898 8.86251L7.85078 7.00244L7.85109 7.00311L6.75286 1.35522C6.75286 1.35522 6.62001 0.224452 5.20453 0.224452H0.0603621L0 0.437095C0 0.437095 1.57307 0.764946 3.41416 1.87258L6.24979 12.7837H9.65058L14.8434 0.224452H11.3307ZM37.0031 12.7834H40L37.387 0.22409H34.7632C33.5516 0.22409 33.2566 1.16006 33.2566 1.16006L28.3887 12.7834H31.7911L32.4715 10.9179H36.6207L37.0031 12.7834ZM33.4115 8.34085L35.1265 3.64098L36.0913 8.34085H33.4115ZM28.6439 3.2446L29.1096 0.547636C29.1096 0.547636 27.6724 0 26.174 0C24.5543 0 20.7079 0.709237 20.7079 4.15766C20.7079 7.40219 25.2223 7.44251 25.2223 9.14678C25.2223 10.851 21.173 10.5456 19.8367 9.47093L19.3515 12.2909C19.3515 12.2909 20.8089 13 23.0356 13C25.2629 13 28.6231 11.8447 28.6231 8.70026C28.6231 5.43492 24.0681 5.13093 24.0681 3.71122C24.0684 2.2912 27.2472 2.47354 28.6439 3.2446Z" fill="#2566AF"/>
<path fill-rule="evenodd" clip-rule="evenodd" d="M8 7L6.88094 1.16775C6.88094 1.16775 6.74557 0 5.30324 0H0.061507L0 0.219646C0 0.219646 2.51937 0.749664 4.93592 2.73576C7.24651 4.63406 8 7 8 7Z" fill="#E6A540"/>
</g>
</svg>
