<svg width="24" height="24" viewBox="0 0 24 24" fill="none" xmlns="http://www.w3.org/2000/svg">
<g opacity="0.183524">
<path d="M16.5 12.75H18V14.25H16.5V12.75Z" fill="white"/>
<path fill-rule="evenodd" clip-rule="evenodd" d="M21 6H3V3.75H19.5V2.25H3C2.17157 2.25 1.5 2.92157 1.5 3.75V19.5C1.5 20.3284 2.17157 21 3 21H21C21.8284 21 22.5 20.3284 22.5 19.5V7.5C22.5 6.67157 21.8284 6 21 6ZM3 19.5V7.5H21V9.75H15C14.1716 9.75 13.5 10.4216 13.5 11.25V15.75C13.5 16.5784 14.1716 17.25 15 17.25H21V19.5H3ZM21 15.75V11.25H15V15.75H21Z" fill="white"/>
</g>
</svg>
